<svg width="20" height="20" viewBox="0 0 20 20" fill="none" xmlns="http://www.w3.org/2000/svg">
<g id="mail">
<path id="Vector" d="M15.997 4.49268L15.9971 4.49268C16.3799 4.49261 16.7483 4.6389 17.0267 4.9016C17.2275 5.09107 17.3707 5.33076 17.4432 5.59306L9.997 9.31567L2.55084 5.59306C2.62334 5.33076 2.76645 5.09107 2.96729 4.9016C3.24574 4.6389 3.6141 4.49261 3.99691 4.49268H3.997H15.997Z" fill="#5A5C5F" stroke="#5A5C5F"/>
<path id="Vector_2" d="M18 8.11084L10 12.1108L2 8.11084V13.9928C2 14.5233 2.21071 15.032 2.58579 15.4071C2.96086 15.7821 3.46957 15.9928 4 15.9928H16C16.5304 15.9928 17.0391 15.7821 17.4142 15.4071C17.7893 15.032 18 14.5233 18 13.9928V8.11084Z" fill="#5A5C5F"/>
</g>
</svg>
