<svg width="20" height="20" viewBox="0 0 20 20" fill="none" xmlns="http://www.w3.org/2000/svg">
<g id="phone">
<path id="Vector" d="M2 2.99268C2 2.72746 2.10536 2.47311 2.29289 2.28557C2.48043 2.09803 2.73478 1.99268 3 1.99268H5.153C5.38971 1.99278 5.6187 2.07686 5.79924 2.22994C5.97979 2.38301 6.10018 2.59517 6.139 2.82868L6.879 7.26368C6.91436 7.47489 6.88097 7.69188 6.78376 7.88271C6.68655 8.07353 6.53065 8.2281 6.339 8.32368L4.791 9.09668C5.34611 10.4723 6.17283 11.722 7.22178 12.7709C8.27072 13.8198 9.52035 14.6466 10.896 15.2017L11.67 13.6537C11.7655 13.4622 11.9199 13.3064 12.1106 13.2092C12.3012 13.112 12.5179 13.0785 12.729 13.1137L17.164 13.8537C17.3975 13.8925 17.6097 14.0129 17.7627 14.1934C17.9158 14.374 17.9999 14.603 18 14.8397V16.9927C18 17.2579 17.8946 17.5122 17.7071 17.6998C17.5196 17.8873 17.2652 17.9927 17 17.9927H15C7.82 17.9927 2 12.1727 2 4.99268V2.99268Z" fill="#5A5C5F"/>
</g>
</svg>
