<svg width="97" height="75" viewBox="0 0 97 75" fill="none" xmlns="http://www.w3.org/2000/svg">
<path id="&#226;&#128;&#156;" d="M21.8977 31.0008C51.1858 31.0008 50.9121 75 21.8977 75C7.93791 75 0 64.3418 0 51.4973C0.273721 29.3611 10.6751 11.8707 31.4779 0.665987C36.9523 -2.34016 41.6056 5.58515 34.7626 9.41116C27.3721 13.7837 22.1714 21.4358 20.2554 31.2741C20.8028 31.0008 21.3502 31.0008 21.8977 31.0008ZM74.9996 31.0008C104.288 31.0008 104.288 75 75.2733 75C61.3135 75 53.3756 64.3418 53.3756 51.4973C53.6493 29.3611 64.0507 11.8707 84.5798 0.665987C90.3279 -2.34016 94.7075 5.58515 88.1382 9.41116C80.474 13.7837 75.547 21.4358 73.631 31.2741C73.9047 31.0008 74.4521 31.0008 74.9996 31.0008Z" fill="#F1F1FF" fill-opacity="0.2"/>
</svg>
