<svg width="230" height="61" viewBox="0 0 230 61" fill="none" xmlns="http://www.w3.org/2000/svg">
<g id="Group">
<path id="Vector" d="M1.05024 32.3473V31.9299H9.88014V33.1737C9.88014 37.4675 11.7055 39.197 19.7096 39.197C26.7721 39.197 28.4237 37.9532 28.4237 34.835C28.4237 31.998 27.0691 30.9586 23.0055 30.1237L11.9373 28.258C4.87484 26.946 0.695312 22.7885 0.695312 15.2402C0.695312 8.24574 5.52677 0.901947 18.768 0.901947C30.8937 0.901947 36.5509 7.47898 36.5509 17.2423V17.6598H27.6631V16.6885C27.6631 12.2584 25.7218 10.3841 17.8915 10.3841C11.5317 10.3841 9.5904 11.841 9.5904 14.8143C9.5904 17.5149 10.887 18.4861 14.1828 19.1762L25.251 21.255C34.0809 22.9163 37.2608 27.9683 37.2608 34.3409C37.2608 41.8891 32.2555 48.6792 19.7169 48.6792C7.76502 48.6877 1.05024 43.15 1.05024 32.3473Z" fill="#5A5C5F"/>
<path id="Vector_2" d="M54.3435 47.207C47.4549 47.207 43.2754 43.3988 43.2754 34.6748V21.1033H38.625V12.5157H43.2754V5.80234H52.1053V12.5157H61.645V21.1033H52.1053V33.4992C52.1053 36.9581 53.2208 37.8611 56.3427 37.8611H61.645V47.207H54.3435Z" fill="#5A5C5F"/>
<path id="Vector_3" d="M63.8203 38.3133C63.8203 33.1846 67.0582 30.0068 73.3601 29.2401L86.0218 27.7151V26.4031C86.0218 21.9048 84.3123 20.6525 79.604 20.6525C75.1275 20.6525 73.3021 22.0411 73.3021 25.9857V26.2668H64.4143V26.0623C64.4143 17.4747 70.5351 11.5196 80.2559 11.5196C90.0854 11.5196 94.743 17.4747 94.743 26.5479V46.9095H86.4999V38.9438H86.029C84.6745 44.3451 80.5529 47.5996 74.0192 47.5996C67.6449 47.591 63.8203 44.1321 63.8203 38.3133ZM76.54 40.2473C82.5449 40.2473 85.7828 38.586 86.0218 33.6702L75.7794 35.0589C73.6571 35.2634 72.7154 35.962 72.7154 37.6233C72.7082 39.489 73.9468 40.2473 76.54 40.2473Z" fill="#5A5C5F"/>
<path id="Vector_4" d="M101.57 47.299V21.1954H97.3906V12.6077H101.751C102.693 5.61325 107.872 0.901978 116.941 0.901978H119.534V8.45023H115.529C111.646 8.45023 109.821 9.20847 110.052 12.6077H119.534V21.1954H110.407V47.299H101.57ZM124.358 47.299V21.1954H120.179V12.6077H124.532C125.474 5.61325 130.718 0.901978 139.722 0.901978H142.315V8.45023H138.309C134.427 8.45023 132.602 9.20847 132.891 12.6077H142.315V21.1954H133.246V47.299H124.358ZM145.263 9.07215V0.901978H154.093V9.07215H145.263ZM145.263 47.299V12.6077H154.093V47.299H145.263Z" fill="#5A5C5F"/>
<path id="Vector_5" d="M158.797 47.7178V13.0264H166.982V23.6928H167.511C168.279 17.874 171.806 12.3364 179.521 12.3364C187.59 12.3364 191.415 18.4278 191.415 26.1209V47.7263H182.585V29.5798C182.585 24.0421 180.643 21.6822 175.225 21.6822C169.633 21.6822 167.627 24.3148 167.627 30.2017V47.7178H158.797Z" fill="#5A5C5F"/>
<path id="Vector_6" d="M195.016 28.2678C195.016 18.5726 200.376 12.3364 209.206 12.3364C215.211 12.3364 219.506 15.3863 220.448 21.4096H220.919V13.0264H229.162V42.6657C229.162 54.7804 222.918 60.1818 212.378 60.1818C202.839 60.1818 196.834 55.1979 196.834 46.4739H205.664C205.664 50.3503 206.96 51.526 212.965 51.526C218.615 51.526 220.325 50.1373 220.325 43.3558V35.5349H219.854C218.912 40.6551 215.435 44.1907 208.844 44.1907C200.079 44.1907 195.016 38.0311 195.016 28.2678ZM211.915 35.2623C217.565 35.2623 220.332 33.3965 220.332 28.6171V27.8589C220.332 23.1476 217.507 21.35 212.031 21.35C206.381 21.35 203.903 23.1476 203.903 28.2763C203.903 33.388 206.381 35.2623 211.915 35.2623Z" fill="#5A5C5F"/>
</g>
</svg>
